# xmcd CD database file
#
# Track frame offsets:
#	150
#	20447
#	41707
#
# Disc length: 786 seconds
#
# Revision: 1
# Processed by: cddbd v1.5.1PL0 Copyright (c) Steve Scherf et al.
# Submitted via: CDex 1.51
#
DISCID=1d031003
DTITLE=Morpheus Descends - The Horror of the Truth
DYEAR=1997
DGENRE=Death Metal
TTITLE0=Begging for Possession
TTITLE1=Valley of Undead War
TTITLE2=The Horror of the Truth
EXTD=YEAR: 1997
EXTT0=
EXTT1=
EXTT2=
PLAYORDER=
